# xmcd CD database file generated by Grip 3.4.3
# 
# Track frame offsets:
#       150
#       33815
#       63795
#       123060
#       152115
#       184492
#       225325
#       253435
# 
# Disc length: 3707 seconds
# 
# Revision: 1
# Processed by: cddbd v1.5.2PL0 Copyright (c) Steve Scherf et al.
# Submitted via: Grip 3.4.3
# 
DISCID=600e7908
DTITLE=Éder Quartet - Mozart: String Quartets (Complete) - Quartets Nos
DTITLE=18 and 16
DYEAR=1991
DGENRE=Classical
TTITLE0=String Quartet No.18 in A major, K464 - I. Allegro
TTITLE1=II. Menuetto
TTITLE2=III. Andante
TTITLE3=IV. Allegro
TTITLE4=String Quartet No.16 in E flat major, K428 - I. Allegro
TTITLE5=II. Andante con molo
TTITLE6=III. Menuetto, Allegro
TTITLE7=IV. Allegro vivace
EXTD=
EXTT0=
EXTT1=
EXTT2=
EXTT3=
EXTT4=
EXTT5=
EXTT6=
EXTT7=
PLAYORDER=
